<svg width="100" height="100" viewBox="0 0 100 100" fill="none" xmlns="http://www.w3.org/2000/svg">
<g clip-path="url(#clip0_1_30)">
<path d="M79.1667 0H20.8333C9.32917 0 0 9.32917 0 20.8333V79.1667C0 90.6708 9.32917 100 20.8333 100H79.1667C90.675 100 100 90.6708 100 79.1667V20.8333C100 9.32917 90.675 0 79.1667 0ZM60.5583 81.625C58.8708 81.95 58.3333 80.9125 58.3333 80.025V70.8792C58.3333 67.7667 57.2417 65.7417 56.0417 64.7083C63.4667 63.8833 71.2667 61.0625 71.2667 48.2625C71.2667 44.6208 69.9667 41.6458 67.8375 39.3167C68.1792 38.475 69.3208 35.0833 67.5083 30.4958C67.5083 30.4958 64.7125 29.6 58.35 33.9125C55.6833 33.1625 52.8333 32.8 50 32.7833C47.1667 32.7958 44.3167 33.1625 41.6542 33.9042C35.2875 29.5917 32.4875 30.4875 32.4875 30.4875C30.6792 35.0792 31.8208 38.4667 32.1667 39.3125C30.0333 41.6458 28.7333 44.6167 28.7333 48.2583C28.7333 61.025 36.5125 63.8875 43.9208 64.7333C42.9667 65.5667 42.1042 67.0333 41.8042 69.1917C39.9 70.0417 35.0792 71.5125 32.1042 66.4167C32.1042 66.4167 30.3417 63.2167 26.9917 62.9792C26.9917 62.9792 23.7417 62.9375 26.7625 65.0083C26.7625 65.0083 28.95 66.0333 30.4667 69.8833C30.4667 69.8833 32.3958 75.8333 41.6667 73.8167V80.0208C41.6667 80.9 41.1292 81.9333 39.4667 81.625C26.2167 77.2208 16.6667 64.725 16.6667 50C16.6667 31.5875 31.5917 16.6667 50 16.6667C68.4083 16.6667 83.3333 31.5875 83.3333 50C83.3333 64.7208 73.7958 77.2125 60.5583 81.625Z" fill="#C3FF8A"/>
</g>
<defs>
<clipPath id="clip0_1_30">
<rect width="100" height="100" fill="white"/>
</clipPath>
</defs>
</svg>
